<svg xmlns="http://www.w3.org/2000/svg" width="1600" height="1000" viewBox="0 0 1600 1000" role="img" aria-labelledby="title description">
  <title id="title">BPPMT Banjarmasin publications screenshot placeholder</title>
  <desc id="description">A polished placeholder that can be replaced with the third final website screenshot.</desc>
  <defs>
    <linearGradient id="background" x1="0" y1="0" x2="1" y2="1">
      <stop offset="0" stop-color="#eff6ff"/>
      <stop offset="1" stop-color="#f8fafc"/>
    </linearGradient>
    <linearGradient id="cover" x1="0" y1="0" x2="1" y2="1">
      <stop offset="0" stop-color="#1e40af"/>
      <stop offset="1" stop-color="#0f766e"/>
    </linearGradient>
  </defs>
  <rect width="1600" height="1000" fill="url(#background)"/>
  <rect x="80" y="64" width="1440" height="872" rx="34" fill="#ffffff"/>
  <rect x="80" y="64" width="1440" height="86" rx="34" fill="#0f172a"/>
  <circle cx="128" cy="107" r="10" fill="#fb7185"/>
  <circle cx="162" cy="107" r="10" fill="#fbbf24"/>
  <circle cx="196" cy="107" r="10" fill="#34d399"/>
  <rect x="248" y="88" width="1060" height="38" rx="19" fill="#1e293b"/>
  <text x="778" y="114" fill="#94a3b8" font-family="Arial, sans-serif" font-size="17" text-anchor="middle">transmigrasi.go.id/bppmtbanjarmasin/publikasi</text>
  <text x="128" y="224" fill="#3b82f6" font-family="Arial, sans-serif" font-size="15" font-weight="700" letter-spacing="2">PUBLICATIONS</text>
  <text x="128" y="274" fill="#0f172a" font-family="Arial, sans-serif" font-size="38" font-weight="700">Berita, Pengumuman &amp; Galeri</text>
  <text x="128" y="312" fill="#64748b" font-family="Arial, sans-serif" font-size="17">Publikasi institusi tersusun agar mudah ditemukan dan diperbarui.</text>
  <rect x="128" y="360" width="626" height="364" rx="24" fill="url(#cover)"/>
  <rect x="166" y="398" width="142" height="34" rx="17" fill="#ffffff" opacity="0.9"/>
  <text x="237" y="420" fill="#1d4ed8" font-family="Arial, sans-serif" font-size="13" font-weight="700" text-anchor="middle">BERITA UTAMA</text>
  <text x="166" y="526" fill="#ffffff" font-family="Arial, sans-serif" font-size="30" font-weight="700">Informasi Kegiatan dan</text>
  <text x="166" y="566" fill="#ffffff" font-family="Arial, sans-serif" font-size="30" font-weight="700">Program BPPMT Banjarmasin</text>
  <rect x="166" y="604" width="430" height="14" rx="7" fill="#bfdbfe" opacity="0.8"/>
  <rect x="166" y="636" width="360" height="14" rx="7" fill="#bfdbfe" opacity="0.6"/>
  <g>
    <rect x="790" y="360" width="682" height="166" rx="22" fill="#f8fafc" stroke="#e2e8f0" stroke-width="2"/>
    <rect x="790" y="558" width="682" height="166" rx="22" fill="#f8fafc" stroke="#e2e8f0" stroke-width="2"/>
    <rect x="824" y="394" width="166" height="98" rx="14" fill="#dbeafe"/>
    <rect x="824" y="592" width="166" height="98" rx="14" fill="#ccfbf1"/>
    <text x="1024" y="408" fill="#3b82f6" font-family="Arial, sans-serif" font-size="13" font-weight="700">PENGUMUMAN</text>
    <text x="1024" y="446" fill="#0f172a" font-family="Arial, sans-serif" font-size="20" font-weight="700">Informasi layanan terbaru</text>
    <rect x="1024" y="470" width="350" height="12" rx="6" fill="#cbd5e1"/>
    <text x="1024" y="606" fill="#0f766e" font-family="Arial, sans-serif" font-size="13" font-weight="700">BERITA KEMENTERIAN</text>
    <text x="1024" y="644" fill="#0f172a" font-family="Arial, sans-serif" font-size="20" font-weight="700">Kabar transformasi transmigrasi</text>
    <rect x="1024" y="668" width="350" height="12" rx="6" fill="#cbd5e1"/>
  </g>
  <text x="128" y="788" fill="#0f172a" font-family="Arial, sans-serif" font-size="22" font-weight="700">Galeri Publikasi</text>
  <g>
    <rect x="128" y="818" width="304" height="72" rx="16" fill="#dbeafe"/>
    <rect x="456" y="818" width="304" height="72" rx="16" fill="#bfdbfe"/>
    <rect x="784" y="818" width="304" height="72" rx="16" fill="#ccfbf1"/>
    <rect x="1112" y="818" width="360" height="72" rx="16" fill="#e2e8f0"/>
  </g>
  <rect x="550" y="900" width="500" height="28" rx="14" fill="#e2e8f0"/>
  <text x="800" y="920" fill="#64748b" font-family="Arial, sans-serif" font-size="14" font-weight="700" text-anchor="middle">SCREENSHOT PLACEHOLDER 03</text>
</svg>
